<svg xmlns="http://www.w3.org/2000/svg" width="128" height="380" viewBox="0 0 128 380"><defs><style>.cls-1{fill:#fff;}.cls-2,.cls-3{fill:#231f20;}.cls-2,.cls-4,.cls-5{stroke:#231f20;}.cls-2{stroke-miterlimit:10;}.cls-4,.cls-5{fill:none;}.cls-4{stroke-width:8px;}.cls-5{stroke-width:3px;}</style></defs><title>itea-bg-1</title><g id="Layer_4" data-name="Layer 4"><path class="cls-1" d="M127.75.25v379.5H.25V.25h127.5M128,0H0V380H128V0Z" transform="translate(0 0)"/></g><g id="Layer_2" data-name="Layer 2"><polygon class="cls-2" points="88.436 314.896 88.436 357.614 101.32 373.529 114.162 358.452 114.162 314.896 88.436 314.896"/><rect class="cls-2" x="22.2278" y="342.3524" width="34.1491" height="12.5369"/><polygon class="cls-2" points="18.742 343.743 18.742 353.609 10.363 348.676 18.742 343.743"/><polygon class="cls-2" points="60.124 343.743 60.124 353.609 68.503 348.676 60.124 343.743"/><rect class="cls-2" x="24.4384" y="261.6409" width="28.989" height="10.9271"/><polygon class="cls-2" points="29.372 281.69 19.507 281.69 24.44 273.311 29.372 281.69"/><path class="cls-3" d="M4.8259,73.0658C2.607,49.18,27.3077,52.8171,39.37,53.4035c8.003.3891,27.638-4.984,37.3886,22.1007,8.3692,23.2477,37.888,12.97,45.5165,33.6078,6.0563,16.3845-8.8265,30.3551-5.69,55.8,1.3375,10.8484,4.3108,10.6,5.69,23.9774,1.3227,12.8333,2.488,24.1394-4.8768,33.3246A30.9925,30.9925,0,0,1,87.731,232.78a31.3181,31.3181,0,0,1-22.7583-19.5071c-4.8617-13.4421,1.6281-29.67,7.3152-43.8909,4.1229-10.31,8.0937-16.4468,5.2832-23.1646-1.9736-4.7174-6.9106-8.8116-12.192-9.3472-7.45-.7555-9.78,6.1581-18.6943,8.9408-10.7926,3.369-23.7511-1.6539-31.2926-8.9408C8.4081,130.1219,6.0786,122.2114,3.42,106.39.6057,89.6485,5.6978,82.451,4.8259,73.0658Z" transform="translate(0 0)"/><path class="cls-4" d="M32.8673,163.6925c.9378.0727,12.5725.8,18.6943-7.3152,6.1451-8.1456,4.4-22.1048-6.0959-30.8862" transform="translate(0 0)"/><path class="cls-2" d="M55.5463,17.5717c-6.3134-.6432-14.3585,7.214-13.3256,12.95.7775,4.3176,1.334,8.3041,12.3045,12.0073,5.7546,1.9426,13.8572.8443,17.5373.38,7.9313-1.001,15.4069-7.4667,14.4517-10.8857-2.6544-9.5006-10.5449-1.0808-20.9591-8.6951C60.7509,19.8158,59.1428,17.9381,55.5463,17.5717Z" transform="translate(0 0)"/><line class="cls-5" x1="18.7415" y1="348.6761" x2="60.1242" y2="348.6761"/></g></svg>