<svg id="Layer_2" data-name="Layer 2" xmlns="http://www.w3.org/2000/svg" width="128.3928" height="128.3928" viewBox="0 0 128.3928 128.3928"><defs><style>.cls-1,.cls-4{fill:#fff;}.cls-2{fill:#231f20;}.cls-3{fill:#ed1c24;}.cls-4{stroke:#ed1c24;stroke-linecap:round;stroke-linejoin:bevel;stroke-width:6px;}</style></defs><title>knob1</title><path class="cls-1" d="M64.6966,126.3924a61.6963,61.6963,0,1,1,61.6963-61.6958A61.7664,61.7664,0,0,1,64.6966,126.3924Z" transform="translate(-0.5 -0.5)"/><path class="cls-2" d="M64.6964,5.5A59.1964,59.1964,0,1,1,5.5,64.6964,59.2635,59.2635,0,0,1,64.6964,5.5m0-5a64.1964,64.1964,0,1,0,64.1964,64.1964A64.1964,64.1964,0,0,0,64.6964.5Z" transform="translate(-0.5 -0.5)"/><circle class="cls-1" cx="64.1966" cy="64.1964" r="52.0683"/><path class="cls-3" d="M64.6964,14.1281A50.5683,50.5683,0,1,1,14.1281,64.6964,50.6256,50.6256,0,0,1,64.6964,14.1281m0-3a53.5683,53.5683,0,1,0,53.5683,53.5683A53.5684,53.5684,0,0,0,64.6964,11.1281Z" transform="translate(-0.5 -0.5)"/><line class="cls-4" x1="64.1964" y1="64.1964" x2="64.1964" y2="13.6281"/></svg>