<svg id="Layer_1" data-name="Layer 1" xmlns="http://www.w3.org/2000/svg" width="72.8079" height="72.8079" viewBox="0 0 72.8079 72.8079"><defs><style>.cls-1{fill:#262324;}.cls-2,.cls-3{fill:#fff;}.cls-3{stroke:#fff;stroke-miterlimit:10;}</style></defs><title>mta2-knob2</title><path class="cls-1" d="M36.4041,71.3082A34.9041,34.9041,0,1,1,71.3079,36.4039,34.9441,34.9441,0,0,1,36.4041,71.3082Z"/><path class="cls-2" d="M36.404,3A33.404,33.404,0,1,1,3,36.404,33.4418,33.4418,0,0,1,36.404,3m0-3A36.404,36.404,0,1,0,72.8079,36.404,36.404,36.404,0,0,0,36.404,0Z"/><path class="cls-3" d="M35.9962,2.1531a3.8966,3.8966,0,0,0-1.8507.7968c-.1449.1159-2.8468,2.8-6.0086,5.9651-6.2151,6.2223-5.9869,5.98-6.2622,6.6461a3.12,3.12,0,0,0-.2607,1.3871,2.6361,2.6361,0,0,0,.0977.8693,3.5438,3.5438,0,0,0,5.3676,2.0753A40.6509,40.6509,0,0,0,30.1071,16.97l2.7454-2.7345.0108,11.9122.0073,11.9158.08.29a3.542,3.542,0,0,0,6.9466-.3079c.0471-.2933.0543-2.0137.0543-12.0787V14.2319l2.7454,2.7417c2.9264,2.9228,2.97,2.9626,3.5747,3.2125a2.9445,2.9445,0,0,0,1.3582.2717,3.2433,3.2433,0,0,0,1.7638-.4346,3.5491,3.5491,0,0,0,1.1409-5.1575C50.36,14.6122,39.1037,3.3157,38.68,2.968a4.3911,4.3911,0,0,0-1.054-.6121A3.7681,3.7681,0,0,0,35.9962,2.1531Z"/></svg>