<svg id="Layer_1" data-name="Layer 1" xmlns="http://www.w3.org/2000/svg" width="53.2254" height="53.2254" viewBox="0 0 53.2254 53.2254"><defs><style>.cls-1{fill:#262324;}.cls-2,.cls-3{fill:#fff;}.cls-3{stroke:#fff;stroke-miterlimit:10;}</style></defs><title>mta2-knob3</title><path class="cls-1" d="M26.6127,52.2258A25.6128,25.6128,0,1,1,52.2255,26.6125,25.6421,25.6421,0,0,1,26.6127,52.2258Z"/><path class="cls-2" d="M26.6127,2A24.6127,24.6127,0,1,1,2,26.6127,24.6406,24.6406,0,0,1,26.6127,2m0-2A26.6127,26.6127,0,1,0,53.2254,26.6127,26.6127,26.6127,0,0,0,26.6127,0Z"/><path class="cls-3" d="M26.077,1.8143a2.6394,2.6394,0,0,0-1.2538.54c-.0981.0785-1.9286,1.8967-4.0706,4.0412-4.21,4.2154-4.0559,4.051-4.2424,4.5025a2.1157,2.1157,0,0,0-.1767.94,1.7863,1.7863,0,0,0,.0663.5889,2.4007,2.4007,0,0,0,3.6363,1.4059,27.5007,27.5007,0,0,0,2.0513-1.98L23.9473,10l.0073,8.07.0049,8.0726.054.1963A2.4,2.4,0,0,0,28.72,26.13c.0319-.1988.0368-1.3642.0368-8.183v-7.95l1.86,1.8574c1.9826,1.98,2.012,2.0071,2.4218,2.1764a1.9937,1.9937,0,0,0,.92.184,2.1967,2.1967,0,0,0,1.1949-.2944,2.4044,2.4044,0,0,0,.7729-3.494c-.1177-.1718-7.7437-7.8248-8.0308-8.06a2.9754,2.9754,0,0,0-.714-.4147A2.5535,2.5535,0,0,0,26.077,1.8143Z"/></svg>