<svg xmlns="http://www.w3.org/2000/svg" width="128.3928" height="128.3929" viewBox="0 0 128.3928 128.3929"><defs><style>.cls-1{fill:#262324;}.cls-2{fill:#fff;}.cls-3{fill:none;stroke:#fff;stroke-miterlimit:10;stroke-width:3px;}</style></defs><title>mta2-knob1</title><g id="Layer_2" data-name="Layer 2"><path class="cls-1" d="M64.1964,127.393A63.1965,63.1965,0,0,1,64.1964,1,62.5461,62.5461,0,0,1,92.338,7.5962,63.2061,63.2061,0,0,1,64.1964,127.393Z"/><path class="cls-2" d="M64.1964,2A61.5642,61.5642,0,0,1,91.8925,8.4911,62.2222,62.2222,0,1,1,64.1964,2m0-2a64.1678,64.1678,0,1,0,28.588,6.701A64.1964,64.1964,0,0,0,64.1964,0Z"/><path class="cls-3" d="M63.07,2.7986a7.251,7.251,0,0,0-3.4442,1.4828c-.27.2157-5.2978,5.21-11.182,11.1011C36.8773,26.9622,37.3019,26.5106,36.79,27.7508a5.8084,5.8084,0,0,0-.4853,2.5815,4.9018,4.9018,0,0,0,.182,1.6176,6.5948,6.5948,0,0,0,9.9889,3.8622A75.6614,75.6614,0,0,0,52.11,30.3727l5.1091-5.0888.02,22.1685.0135,22.1752.1483.5393a6.5918,6.5918,0,0,0,12.9277-.573c.0876-.5459.1011-3.7475.1011-22.4785V25.2771L75.5391,30.38c5.4461,5.4393,5.5269,5.5134,6.6525,5.9785a5.48,5.48,0,0,0,2.5276.5055,6.0353,6.0353,0,0,0,3.2825-.8088,6.6049,6.6049,0,0,0,2.1232-9.598c-.3236-.4719-21.2721-21.4945-22.0607-22.1416A8.1656,8.1656,0,0,0,66.1028,3.176,7.0122,7.0122,0,0,0,63.07,2.7986Z"/></g></svg>