<svg xmlns="http://www.w3.org/2000/svg" width="384.7882" height="380" viewBox="0 0 384.7882 380"><defs><style>.cls-1{fill:#302e2f;}.cls-12,.cls-14,.cls-17,.cls-18,.cls-19,.cls-2,.cls-22,.cls-8{fill:#fff;}.cls-3{font-size:12px;letter-spacing:0.025em;}.cls-3,.cls-5{fill:#231f20;}.cls-12,.cls-14,.cls-17,.cls-18,.cls-3,.cls-6,.cls-8{font-family:Helvetica-Bold, Helvetica;font-weight:700;}.cls-21,.cls-4{fill:none;}.cls-4,.cls-5{stroke:#ed1c24;}.cls-19,.cls-20,.cls-21,.cls-22,.cls-4,.cls-5{stroke-miterlimit:10;}.cls-6{font-size:18px;letter-spacing:0.025em;}.cls-11,.cls-6{fill:#ed1c24;}.cls-7{letter-spacing:-0.0297em;}.cls-8{font-size:24px;letter-spacing:-0.0487em;}.cls-9{letter-spacing:0.025em;}.cls-10{letter-spacing:-0.0297em;}.cls-12,.cls-14,.cls-17{font-size:8px;}.cls-12,.cls-16{letter-spacing:-0.0116em;}.cls-13{letter-spacing:0.025em;}.cls-14{letter-spacing:0.025em;}.cls-15{letter-spacing:-0.0117em;}.cls-17{letter-spacing:0.0162em;}.cls-18{font-size:10px;letter-spacing:0.025em;}.cls-19,.cls-20{stroke:#231f20;}.cls-20{fill:#b7d433;}.cls-21,.cls-22{stroke:#fff;}.cls-21{stroke-width:3px;}</style></defs><title>mta2-panel2</title><g id="Layer_4" data-name="Layer 4"><rect class="cls-1" width="384.7882" height="380"/></g><g id="Layer_7" data-name="Layer 7"><rect class="cls-2" x="221.5127" y="196.4368" width="151.0279" height="31.5282"/><rect class="cls-2" x="221.5127" y="238.8254" width="151.0279" height="31.5282"/><text class="cls-3" transform="translate(227.1975 258.8577)">Exits</text><text class="cls-3" transform="translate(227.1974 216.9796)">Entrances</text><circle class="cls-4" cx="31.0167" cy="79.8405" r="14.2478"/><circle class="cls-4" cx="87.5812" cy="155.7241" r="70.3573"/><line class="cls-5" x1="39.7635" y1="91.0335" x2="45.7584" y2="99.1431"/><circle class="cls-4" cx="173.1381" cy="75.8369" r="14.2478"/><circle class="cls-4" cx="302.3574" cy="75.8369" r="14.2478"/><circle class="cls-4" cx="243.2835" cy="111.9444" r="41.2069"/><circle class="cls-4" cx="345.2835" cy="121.2833" r="31.1986"/><line class="cls-4" x1="186.8116" y1="79.8405" x2="208.3579" y2="90.0847"/><line class="cls-4" x1="312.9472" y1="85.3669" x2="325.1728" y2="97.4353"/><rect class="cls-2" x="65.7692" y="238.8254" width="145.3451" height="31.5282"/><rect class="cls-2" x="157.9385" y="196.1976" width="53.1758" height="31.5282"/><text class="cls-6" transform="translate(165.8179 219.1933)">!</text><text x="0.7882"/><text class="cls-3" transform="translate(71.9709 258.8579)">Med Income 20<tspan class="cls-7" x="89.9272" y="0">1</tspan><tspan x="96.2451" y="0">1</tspan></text><text class="cls-8" transform="translate(128.8816 37.3007)">T<tspan class="cls-9" x="13.4907" y="0">wo </tspan><tspan class="cls-10" x="55.2866" y="0">T</tspan><tspan class="cls-9" x="69.2344" y="0">rains</tspan></text></g><g id="Layer_2" data-name="Layer 2"><polygon class="cls-11" points="152.581 366.277 14.427 366.277 14.427 342.606 142.581 342.606 152.581 366.277"/><polygon class="cls-11" points="263.237 366.483 156.815 366.483 146.815 342.812 253.237 342.812 263.237 366.483"/><polygon class="cls-11" points="372.541 366.483 266.274 366.483 256.274 342.812 372.541 342.812 372.541 366.483"/><text class="cls-12" transform="translate(33.0167 337.209) rotate(-90)">W<tspan class="cls-13" x="7.458" y="0">akefield - 241 St</tspan></text><text class="cls-14" transform="translate(60.0863 337.209) rotate(-90)">219 St</text><text class="cls-14" transform="translate(87.3669 337.209) rotate(-90)">Pelham Pkwy</text><text class="cls-14" transform="translate(114.2921 337.209) rotate(-90)">174 St</text><text class="cls-14" transform="translate(140.3617 337.209) rotate(-90)">Prospect<tspan class="cls-15" x="35.8345" y="0" xml:space="preserve"> A</tspan><tspan x="43.6484" y="0">v</tspan></text><text class="cls-14" transform="translate(167.6422 337.209) rotate(-90)">135 St</text><text class="cls-14" transform="translate(194.4431 337.209) rotate(-90)">96 St</text><text class="cls-14" transform="translate(221.5127 337.209) rotate(-90)">14 St - 7<tspan class="cls-16" x="32.4795" y="0" xml:space="preserve"> A</tspan><tspan class="cls-13" x="40.2939" y="0">v</tspan></text><text class="cls-12" transform="translate(248.7932 337.209) rotate(-90)">W<tspan class="cls-13" x="7.458" y="0">all St</tspan></text><text class="cls-14" transform="translate(275.7184 337.209) rotate(-90)">Nevins St</text><text class="cls-14" transform="translate(301.788 337.209) rotate(-90)">Eastern Pkwy</text><text class="cls-17" transform="translate(329.0686 337.209) rotate(-90)">W<tspan class="cls-13" x="7.6807" y="0">inthrop St</tspan></text><text class="cls-14" transform="translate(355.9526 337.209) rotate(-90)">Flatbush<tspan class="cls-15" x="34.9321" y="0" xml:space="preserve"> A</tspan><tspan x="42.7461" y="0">v</tspan></text><text class="cls-14" transform="translate(299.3576 190.0001)">2019</text><text class="cls-14" transform="translate(347.2726 190.0002)">2020</text><text class="cls-18" transform="translate(181.1547 152.4817)">Date</text><text class="cls-18" transform="translate(294.8332 153.1515)">Hour</text><text class="cls-18" transform="translate(60.0865 75.8365)">Station</text><text class="cls-14" transform="translate(40.4189 251.2387)">-1</text></g><g id="Layer_8" data-name="Layer 8"><path class="cls-1" d="M87.1606,218.7227a63.1966,63.1966,0,0,1,0-126.3931,62.553,62.553,0,0,1,28.1426,6.5962A63.2063,63.2063,0,0,1,87.1606,218.7227Z" transform="translate(0.7882)"/><path class="cls-2" d="M87.1609,93.33a61.5648,61.5648,0,0,1,27.6961,6.4911A62.2223,62.2223,0,1,1,87.1609,93.33m0-2a64.1675,64.1675,0,1,0,28.5879,6.7009A64.1965,64.1965,0,0,0,87.1609,91.33Z" transform="translate(0.7882)"/><circle class="cls-19" cx="194.2212" cy="254.8734" r="13.4958"/><circle class="cls-19" cx="356.3204" cy="212.2578" r="13.4958"/><circle class="cls-19" cx="356.3204" cy="254.8734" r="13.4958"/><path class="cls-1" d="M242.8633,147.1445A34.9041,34.9041,0,1,1,277.7666,112.24,34.9441,34.9441,0,0,1,242.8633,147.1445Z" transform="translate(0.7882)"/><path class="cls-2" d="M242.8631,78.8365a33.404,33.404,0,1,1-33.404,33.404,33.4419,33.4419,0,0,1,33.404-33.404m0-3a36.404,36.404,0,1,0,36.404,36.404,36.404,36.404,0,0,0-36.404-36.404Z" transform="translate(0.7882)"/><circle class="cls-19" cx="194.2212" cy="212.2578" r="13.4958"/><path class="cls-1" d="M344.69,147.1919A25.6126,25.6126,0,1,1,370.3027,121.58,25.6412,25.6412,0,0,1,344.69,147.1919Z" transform="translate(0.7882)"/><path class="cls-2" d="M344.69,96.9667a24.6127,24.6127,0,1,1-24.6127,24.6127A24.6406,24.6406,0,0,1,344.69,96.9667m0-2a26.6127,26.6127,0,1,0,26.6127,26.6127A26.6127,26.6127,0,0,0,344.69,94.9667Z" transform="translate(0.7882)"/><circle class="cls-20" cx="28.2912" cy="234.8734" r="13.4958"/><circle class="cls-19" cx="309.2212" cy="212.2578" r="13.4958"/><circle class="cls-19" cx="309.2212" cy="254.8734" r="13.4958"/><path class="cls-21" d="M86.0341,94.1281A7.2516,7.2516,0,0,0,82.59,95.611c-.27.2156-5.2978,5.21-11.182,11.1011-11.5662,11.58-11.1415,11.128-11.6538,12.3682a5.81,5.81,0,0,0-.4853,2.5815,4.9051,4.9051,0,0,0,.182,1.6177,6.5948,6.5948,0,0,0,9.989,3.8621,75.6666,75.6666,0,0,0,5.6348-5.4393l5.1091-5.0889.02,22.1685.0135,22.1753.1482.5392a6.5918,6.5918,0,0,0,12.9277-.5729c.0877-.546.1011-3.7476.1011-22.4786V116.6067l5.1091,5.1023c5.4461,5.4393,5.527,5.5135,6.6526,5.9786a5.4817,5.4817,0,0,0,2.5276.5055,6.0361,6.0361,0,0,0,3.2824-.8088,6.6049,6.6049,0,0,0,2.1232-9.5981c-.3235-.4718-21.2721-21.4945-22.0607-22.1415a8.1623,8.1623,0,0,0-1.9614-1.1391A7.0107,7.0107,0,0,0,86.0341,94.1281Z" transform="translate(0.7882)"/><path class="cls-22" d="M242.4553,77.99a3.8966,3.8966,0,0,0-1.8507.7968c-.1449.1159-2.8468,2.8-6.0086,5.9651-6.2151,6.2223-5.9869,5.98-6.2621,6.6461a3.1217,3.1217,0,0,0-.2608,1.3871,2.6359,2.6359,0,0,0,.0978.8693,3.5437,3.5437,0,0,0,5.3675,2.0753,40.66,40.66,0,0,0,3.0279-2.9228l2.7453-2.7345.0109,11.9122L239.33,113.9l.08.29a3.542,3.542,0,0,0,6.9466-.3078c.0471-.2934.0544-2.0138.0544-12.0788V90.0684l2.7453,2.7417c2.9264,2.9228,2.97,2.9626,3.5747,3.2126a2.9457,2.9457,0,0,0,1.3582.2716,3.2439,3.2439,0,0,0,1.7639-.4346,3.5491,3.5491,0,0,0,1.1408-5.1575c-.1738-.2535-11.43-11.55-11.8542-11.8977a4.3906,4.3906,0,0,0-1.0539-.6121A3.7687,3.7687,0,0,0,242.4553,77.99Z" transform="translate(0.7882)"/><path class="cls-22" d="M344.1542,96.781a2.64,2.64,0,0,0-1.2538.54c-.0981.0785-1.9286,1.8967-4.0706,4.0412-4.21,4.2154-4.0559,4.051-4.2424,4.5025a2.1148,2.1148,0,0,0-.1767.94,1.7837,1.7837,0,0,0,.0663.5889,2.4008,2.4008,0,0,0,3.6363,1.406,27.5542,27.5542,0,0,0,2.0513-1.98l1.86-1.8526.0074,8.07.0049,8.0726.054.1963a2.4,2.4,0,0,0,4.7061-.2086c.0319-.1987.0368-1.3642.0368-8.1829v-7.95l1.86,1.8574c1.9826,1.98,2.012,2.0071,2.4218,2.1764a1.9937,1.9937,0,0,0,.92.184,2.1969,2.1969,0,0,0,1.1949-.2944,2.4044,2.4044,0,0,0,.7729-3.494c-.1178-.1718-7.7437-7.8248-8.0308-8.06a2.9773,2.9773,0,0,0-.714-.4147A2.5537,2.5537,0,0,0,344.1542,96.781Z" transform="translate(0.7882)"/></g></svg>