<svg xmlns="http://www.w3.org/2000/svg" width="384.7882" height="380" viewBox="0 0 384.7882 380"><defs><style>.cls-1{fill:#262324;}.cls-12,.cls-14,.cls-17,.cls-18,.cls-2,.cls-8{fill:#fff;}.cls-3{font-size:12px;letter-spacing:0.025em;}.cls-3,.cls-5{fill:#231f20;}.cls-12,.cls-14,.cls-17,.cls-18,.cls-3,.cls-6,.cls-8{font-family:Helvetica-Bold, Helvetica;font-weight:700;}.cls-4{fill:none;}.cls-4,.cls-5{stroke:#ed1c24;stroke-miterlimit:10;}.cls-6{font-size:18px;letter-spacing:0.025em;}.cls-11,.cls-6{fill:#ed1c24;}.cls-7{letter-spacing:-0.0297em;}.cls-8{font-size:24px;letter-spacing:-0.0487em;}.cls-9{letter-spacing:0.025em;}.cls-10{letter-spacing:-0.0297em;}.cls-12,.cls-14,.cls-17{font-size:8px;}.cls-12,.cls-16{letter-spacing:-0.0116em;}.cls-13{letter-spacing:0.025em;}.cls-14{letter-spacing:0.025em;}.cls-15{letter-spacing:-0.0117em;}.cls-17{letter-spacing:0.0162em;}.cls-18{font-size:10px;letter-spacing:0.025em;}</style></defs><title>mta2-panel3</title><g id="Layer_4" data-name="Layer 4"><rect class="cls-1" width="384.7882" height="380"/></g><g id="Layer_7" data-name="Layer 7"><rect class="cls-2" x="221.5127" y="196.4368" width="151.0279" height="31.5282"/><rect class="cls-2" x="221.5127" y="238.8254" width="151.0279" height="31.5282"/><text class="cls-3" transform="translate(227.1975 258.8577)">Exits</text><text class="cls-3" transform="translate(227.1974 216.9796)">Entrances</text><circle class="cls-4" cx="31.0167" cy="79.8405" r="14.2478"/><circle class="cls-4" cx="87.5812" cy="155.7241" r="70.3573"/><line class="cls-5" x1="39.7635" y1="91.0335" x2="45.7584" y2="99.1431"/><circle class="cls-4" cx="173.1381" cy="75.8369" r="14.2478"/><circle class="cls-4" cx="302.3574" cy="75.8369" r="14.2478"/><circle class="cls-4" cx="243.2835" cy="111.9444" r="41.2069"/><circle class="cls-4" cx="345.2835" cy="121.2833" r="31.1986"/><line class="cls-4" x1="186.8116" y1="79.8405" x2="208.3579" y2="90.0847"/><line class="cls-4" x1="312.9472" y1="85.3669" x2="325.1728" y2="97.4353"/><rect class="cls-2" x="65.7692" y="238.8254" width="145.3451" height="31.5282"/><rect class="cls-2" x="157.9385" y="196.1976" width="53.1758" height="31.5282"/><text class="cls-6" transform="translate(165.8179 219.1933)">!</text><text x="0.7882"/><text class="cls-3" transform="translate(71.9709 258.8579)">Med Income 20<tspan class="cls-7" x="89.9272" y="0">1</tspan><tspan x="96.2451" y="0">1</tspan></text><text class="cls-8" transform="translate(128.8816 37.3007)">T<tspan class="cls-9" x="13.4907" y="0">wo </tspan><tspan class="cls-10" x="55.2866" y="0">T</tspan><tspan class="cls-9" x="69.2344" y="0">rains</tspan></text></g><g id="Layer_2" data-name="Layer 2"><polygon class="cls-11" points="152.581 366.277 14.427 366.277 14.427 342.606 142.581 342.606 152.581 366.277"/><polygon class="cls-11" points="263.237 366.483 156.815 366.483 146.815 342.812 253.237 342.812 263.237 366.483"/><polygon class="cls-11" points="372.541 366.483 266.274 366.483 256.274 342.812 372.541 342.812 372.541 366.483"/><text class="cls-12" transform="translate(33.0167 337.209) rotate(-90)">W<tspan class="cls-13" x="7.458" y="0">akefield - 241 St</tspan></text><text class="cls-14" transform="translate(60.0863 337.209) rotate(-90)">219 St</text><text class="cls-14" transform="translate(87.3669 337.209) rotate(-90)">Pelham Pkwy</text><text class="cls-14" transform="translate(114.2921 337.209) rotate(-90)">174 St</text><text class="cls-14" transform="translate(140.3617 337.209) rotate(-90)">Prospect<tspan class="cls-15" x="35.8345" y="0" xml:space="preserve"> A</tspan><tspan x="43.6484" y="0">v</tspan></text><text class="cls-14" transform="translate(167.6422 337.209) rotate(-90)">135 St</text><text class="cls-14" transform="translate(194.4431 337.209) rotate(-90)">96 St</text><text class="cls-14" transform="translate(221.5127 337.209) rotate(-90)">14 St - 7<tspan class="cls-16" x="32.4795" y="0" xml:space="preserve"> A</tspan><tspan class="cls-13" x="40.2939" y="0">v</tspan></text><text class="cls-12" transform="translate(248.7932 337.209) rotate(-90)">W<tspan class="cls-13" x="7.458" y="0">all St</tspan></text><text class="cls-14" transform="translate(275.7184 337.209) rotate(-90)">Nevins St</text><text class="cls-14" transform="translate(301.788 337.209) rotate(-90)">Eastern Pkwy</text><text class="cls-17" transform="translate(329.0686 337.209) rotate(-90)">W<tspan class="cls-13" x="7.6807" y="0">inthrop St</tspan></text><text class="cls-14" transform="translate(355.9526 337.209) rotate(-90)">Flatbush<tspan class="cls-15" x="34.9321" y="0" xml:space="preserve"> A</tspan><tspan x="42.7461" y="0">v</tspan></text><text class="cls-14" transform="translate(299.3576 190.0001)">2019</text><text class="cls-14" transform="translate(347.2726 190.0002)">2020</text><text class="cls-18" transform="translate(181.1547 152.4817)">Date</text><text class="cls-18" transform="translate(294.8332 153.1515)">Hour</text><text class="cls-18" transform="translate(60.0865 75.8365)">Station</text><text class="cls-14" transform="translate(40.4189 251.2387)">-1</text></g></svg>