<svg xmlns="http://www.w3.org/2000/svg" xmlns:xlink="http://www.w3.org/1999/xlink" width="384.7882" height="380" viewBox="0 0 384.7882 380"><defs><style>.cls-1{fill:#3e3238;}.cls-2{fill:#ed1c24;}.cls-3{fill:#fff;stroke:#231f20;stroke-miterlimit:10;}</style></defs><title>mta2</title><g id="Layer_3" data-name="Layer 3"><image width="768" height="760" transform="translate(0.7882) scale(0.5 0.5)" xlink:href="localhost_3000_%20(1).png"/></g><g id="Layer_4" data-name="Layer 4"><rect class="cls-1" width="384.7882" height="380"/></g><g id="Layer_2" data-name="Layer 2"><polygon class="cls-2" points="119.773 367.986 5.514 367.986 13.595 342.152 127.854 342.152 119.773 367.986"/><circle class="cls-3" cx="80.5812" cy="121.8036" r="64.1964"/><circle class="cls-3" cx="347.1486" cy="203.7697" r="13.4958"/><circle class="cls-3" cx="347.1486" cy="261.4859" r="13.4958"/><circle class="cls-3" cx="292.4475" cy="263.0394" r="13.4958"/><circle class="cls-3" cx="34.9052" cy="216.4257" r="13.4958"/><circle class="cls-3" cx="226.3916" cy="100.2105" r="39.6033"/><circle class="cls-3" cx="34.9052" cy="264.0758" r="13.4958"/><circle class="cls-3" cx="198.7292" cy="189" r="13.4958"/><circle class="cls-3" cx="347.1486" cy="88.3373" r="13.4958"/><circle class="cls-3" cx="347.1486" cy="146.0535" r="13.4958"/><circle class="cls-3" cx="274.0486" cy="189" r="26.6127"/><polygon class="cls-2" points="241.877 367.986 127.619 367.986 135.699 342.152 249.958 342.152 241.877 367.986"/><polygon class="cls-2" points="363.694 367.986 249.436 367.986 257.517 342.152 371.775 342.152 363.694 367.986"/><circle class="cls-3" cx="167.2924" cy="232.9215" r="13.4958"/></g></svg>